<?xml version="1.0" encoding="utf-8"?>
<!-- Generator: Adobe Illustrator 24.1.1, SVG Export Plug-In . SVG Version: 6.00 Build 0)  -->
<svg version="1.1" id="Layer_1" xmlns="http://www.w3.org/2000/svg" xmlns:xlink="http://www.w3.org/1999/xlink" x="0px" y="0px"
	 viewBox="0 0 708.66 498.9" style="enable-background:new 0 0 708.66 498.9;" xml:space="preserve">
<style type="text/css">
	.st0{fill:#FFFFFF;}
</style>
<path class="st0" d="M518.34,11.06h-324.2c-91.54,0-164.01,72.47-164.01,164.01v278.43c0,19.07,15.26,34.33,34.33,34.33h450.07
	c91.54,0,164.01-72.47,164.01-164.01V175.07C678.53,83.53,606.06,11.06,518.34,11.06z M400.1,358.15H163.62
	c-19.07,0-30.51-15.26-30.51-30.51s15.26-30.51,30.51-30.51H400.1c19.07,0,30.51,15.26,30.51,30.51S419.17,358.15,400.1,358.15z
	 M545.04,205.59H163.62c-19.07,0-30.51-15.26-30.51-30.51c0-19.07,15.26-30.51,30.51-30.51h381.42c19.07,0,30.51,15.26,30.51,30.51
	S560.29,205.59,545.04,205.59z"/>
</svg>
